HIERARCHY
ROOT Pelvis
{
	OFFSET 0.000000 0.000000 0.000000
	CHANNELS 6 Xposition Yposition Zposition Zrotation Yrotation Xrotation 
	JOINT Left_hip
	{
		OFFSET 0.070241 -0.085575 -0.010474
		CHANNELS 3 Zrotation Yrotation Xrotation
		JOINT Left_knee
		{
			OFFSET 0.032125 -0.356873 -0.000555
			CHANNELS 3 Zrotation Yrotation Xrotation
			JOINT Left_ankle
			{
				OFFSET -0.010961 -0.370212 -0.042278
				CHANNELS 3 Zrotation Yrotation Xrotation
				JOINT Left_foot
				{
					OFFSET 0.023322 -0.052281 0.110104
					CHANNELS 3 Zrotation Yrotation Xrotation
					End Site
					{
						OFFSET 0.000000 0.000000 0.000000
					}
				}
			}
		}
	}
	JOINT Right_hip
	{
		OFFSET -0.068518 -0.084320 -0.007402
		CHANNELS 3 Zrotation Yrotation Xrotation
		JOINT Right_knee
		{
			OFFSET -0.037345 -0.364815 -0.003619
			CHANNELS 3 Zrotation Yrotation Xrotation
			JOINT Right_ankle
			{
				OFFSET 0.013394 -0.370006 -0.039954
				CHANNELS 3 Zrotation Yrotation Xrotation
				JOINT Right_foot
				{
					OFFSET -0.019600 -0.045455 0.113223
					CHANNELS 3 Zrotation Yrotation Xrotation
					End Site
					{
						OFFSET 0.000000 0.000000 0.000000
					}
				}
			}
		}
	}
	JOINT Spine1
	{
		OFFSET -0.002404 0.098129 -0.018169
		CHANNELS 3 Zrotation Yrotation Xrotation
		JOINT Spine2
		{
			OFFSET 0.003989 0.127209 -0.001742
			CHANNELS 3 Zrotation Yrotation Xrotation
			JOINT Spine3
			{
				OFFSET 0.001758 0.046641 0.023475
				CHANNELS 3 Zrotation Yrotation Xrotation
				JOINT Neck
				{
					OFFSET -0.003759 0.194901 -0.039982
					CHANNELS 3 Zrotation Yrotation Xrotation
					JOINT Head
					{
						OFFSET 0.003999 0.063756 0.047665
						CHANNELS 3 Zrotation Yrotation Xrotation
						End Site
						{
							OFFSET 0.000000 0.000000 0.000000
						}
					}
				}
				JOINT Left_collar
				{
					OFFSET 0.071816 0.109048 -0.028973
					CHANNELS 3 Zrotation Yrotation Xrotation
					JOINT Left_shoulder
					{
						OFFSET 0.084027 0.032269 -0.006525
						CHANNELS 3 Zrotation Yrotation Xrotation
						JOINT Left_elbow
						{
							OFFSET 0.243854 -0.013992 -0.025905
							CHANNELS 3 Zrotation Yrotation Xrotation
							JOINT Left_wrist
							{
								OFFSET 0.232156 0.008196 -0.000339
								CHANNELS 3 Zrotation Yrotation Xrotation
								JOINT Left_palm
								{
									OFFSET 0.075377 -0.009461 -0.012494
									CHANNELS 3 Zrotation Yrotation Xrotation
									End Site
									{
										OFFSET 0.000000 0.000000 0.000000
									}
								}
							}
						}
					}
				}
				JOINT Right_collar
				{
					OFFSET -0.073768 0.107001 -0.033755
					CHANNELS 3 Zrotation Yrotation Xrotation
					JOINT Right_shoulder
					{
						OFFSET -0.086837 0.032868 -0.009431
						CHANNELS 3 Zrotation Yrotation Xrotation
						JOINT Right_elbow
						{
							OFFSET -0.236446 -0.012544 -0.018747
							CHANNELS 3 Zrotation Yrotation Xrotation
							JOINT Right_wrist
							{
								OFFSET -0.236110 0.006124 -0.004327
								CHANNELS 3 Zrotation Yrotation Xrotation
								JOINT Right_palm
								{
									OFFSET -0.074800 -0.006875 -0.009610
									CHANNELS 3 Zrotation Yrotation Xrotation
									End Site
									{
										OFFSET 0.000000 0.000000 0.000000
									}
								}
							}
						}
					}
				}
			}
		}
	}
}
MOTION
Frames: 16
Frame Time: 0.100000
0.000000 0.000000 0.000000 177.500032 17.624661 -8.349466 0.704865 7.357345 1.774235 0.726378 -3.062986 -4.040798 -3.875587 26.354033 -3.692858 9.433965 -5.505176 -0.317428 1.048288 -3.323194 -1.162071 -0.980170 9.676171 -4.168461 0.578699 -19.597118 -0.673674 4.929872 7.517234 5.663357 0.955489 2.212535 -1.777288 0.525924 -1.862943 -4.641623 -1.025350 2.750977 -2.053894 -3.817604 -3.820834 5.987142 2.341226 -1.976859 4.542994 -5.980057 5.357176 -10.800500 8.458278 -14.881966 -14.848335 1.770363 11.334033 -5.385413 -2.002073 -5.053725 35.582844 0.769028 -7.295865 -1.970740 9.104380 -1.034341 -6.967537 -7.152822 9.364105 -19.834038 -8.023550 -10.616135 -9.285475 -2.560980 2.870089 34.324645 6.194574 7.786662 -4.035750 
-0.000217 -0.000375 0.001994 177.373085 18.235672 -8.424801 0.802313 7.288651 1.949007 0.718008 -3.395217 -4.209138 -3.917499 26.178332 -3.618905 9.365013 -5.407436 -0.373788 1.082957 -3.419334 -0.885112 -0.996155 9.465289 -4.237153 0.500953 -19.821262 -0.840249 4.938724 7.402550 5.863345 0.903582 2.198421 -1.853903 0.491559 -1.882884 -4.734696 -1.070855 2.717510 -1.838725 -3.671171 -3.926193 6.647116 2.366693 -1.923202 5.151743 -5.873388 5.741627 -10.855632 7.857954 -15.127321 -14.661421 1.976567 11.495968 -5.124205 -1.952173 -4.956926 35.610792 0.705438 -7.259952 -1.883280 8.855253 -1.505584 -7.120158 -6.862067 9.435665 -19.715777 -8.164427 -10.711898 -9.100435 -2.439428 2.794019 34.163112 6.235445 7.814767 -3.944491 
-0.000316 -0.000654 0.003630 177.248484 18.888840 -8.524265 0.892217 7.196066 2.071363 0.706558 -3.734146 -4.285067 -3.993502 26.013767 -3.598515 9.414613 -5.364739 -0.380749 1.098771 -3.592808 -0.611358 -0.974866 9.205706 -4.300354 0.320332 -19.996442 -0.961750 5.160844 7.321681 6.103013 0.790812 2.211233 -2.025027 0.510467 -1.916660 -4.605178 -1.122824 2.677386 -1.759712 -3.545772 -4.110177 7.324357 2.311759 -1.905073 5.848004 -5.944973 6.129410 -10.858056 7.677710 -15.443761 -14.624990 1.859837 11.095514 -5.164218 -1.985119 -4.823545 35.453974 0.532371 -7.258174 -1.869611 8.853094 -1.883314 -7.225788 -6.946859 9.641202 -19.807659 -8.179597 -10.998763 -9.320268 -2.426094 2.569342 34.094435 6.297576 7.882527 -3.883503 
-0.000318 -0.000760 0.005134 177.184740 19.292448 -8.686336 0.958935 7.128694 2.272124 0.706478 -3.963516 -4.304586 -4.023947 25.906023 -3.668736 9.442683 -5.305240 -0.292508 1.097351 -3.698784 -0.334406 -0.946183 9.009084 -4.277256 0.153357 -20.050673 -1.114896 5.430182 7.187736 6.292152 0.685414 2.250859 -2.212924 0.517667 -1.911086 -4.296498 -1.182486 2.659121 -1.753265 -3.471694 -4.222538 7.999313 2.211457 -2.022488 6.288948 -6.022823 6.369426 -10.835993 7.602309 -15.632765 -14.563912 1.895681 10.945813 -5.124524 -2.101007 -4.737526 35.509888 0.431699 -7.242760 -1.962385 8.912498 -2.066412 -7.246624 -6.916723 9.712412 -19.694271 -8.216103 -10.871838 -9.358221 -2.245991 2.519304 33.885775 6.350567 7.883860 -3.818523 
-0.000059 -0.000875 0.006292 177.124142 19.549670 -8.812627 1.043704 7.086004 2.406618 0.704622 -4.091575 -4.296418 -4.084095 25.827496 -3.725134 9.535993 -5.265341 -0.208072 1.121194 -3.760089 -0.115174 -0.915200 8.851768 -4.302304 0.005969 -20.035001 -1.178703 5.667012 7.068372 6.422359 0.558649 2.296714 -2.410309 0.527510 -1.889478 -4.024683 -1.244458 2.650833 -1.793829 -3.352582 -4.352042 8.563313 2.152678 -2.189436 6.687091 -6.213811 6.632535 -10.863524 7.566742 -15.829379 -14.507459 1.982723 10.775068 -5.225410 -2.028634 -4.776572 35.595406 0.372156 -7.209280 -1.980468 9.111708 -2.215599 -7.295872 -6.878034 9.880375 -19.592291 -8.216515 -10.817971 -9.478055 -2.215060 2.567829 33.765419 6.343639 7.866674 -3.686362 
0.000593 -0.000952 0.006876 177.052278 19.554111 -8.963617 1.192002 7.126152 2.556186 0.699016 -4.086549 -4.307545 -4.153287 25.766435 -3.737649 9.683722 -5.227248 -0.170445 1.180987 -3.718480 -0.044163 -0.820063 8.752803 -4.155650 -0.054103 -19.908651 -1.160894 5.719327 6.957106 6.471304 0.482392 2.334165 -2.540729 0.513006 -1.816637 -3.747006 -1.322276 2.652648 -1.839151 -3.236482 -4.609146 9.044521 2.083630 -2.544357 6.992086 -6.500237 6.918000 -10.913798 7.225706 -16.044289 -14.324134 2.291743 10.851191 -5.448477 -2.124357 -4.784110 35.554908 0.294511 -7.182746 -2.053824 9.356808 -2.360527 -7.361685 -6.521516 9.992265 -19.313134 -8.269130 -10.623064 -9.715060 -2.005073 2.601718 33.261710 6.351321 7.826846 -3.536884 
0.001586 -0.000685 0.006199 177.053828 19.333370 -9.038201 1.277006 7.148017 2.544785 0.670594 -3.918025 -4.216371 -4.112777 25.740553 -3.791908 9.644785 -5.184010 -0.081261 1.218914 -3.744178 -0.060685 -0.736882 8.696960 -4.157371 -0.058914 -19.719541 -1.120808 5.780160 6.891977 6.521789 0.360582 2.375316 -2.620320 0.489147 -1.763068 -3.535333 -1.390034 2.667085 -1.910895 -3.126967 -4.810551 9.371228 2.033144 -2.826078 7.300535 -6.676209 7.179300 -10.929176 6.817812 -16.131561 -14.057785 2.159742 11.192031 -5.482156 -2.571555 -4.568776 35.713433 0.371916 -7.141594 -2.202304 9.547980 -2.437897 -7.359087 -6.315244 10.201606 -19.171080 -8.112073 -11.038101 -9.882383 -1.581606 2.437606 33.172974 6.245739 7.771433 -3.527296 
0.002522 -0.000227 0.004264 177.094604 19.000942 -9.144656 1.269241 7.163548 2.527012 0.689661 -3.769123 -4.131237 -4.072227 25.865935 -3.831486 9.661207 -5.217300 -0.064893 1.250165 -3.685397 -0.228626 -0.703711 8.772241 -3.931445 -0.008705 -19.611708 -1.141919 5.747069 6.951641 6.503332 0.292772 2.420759 -2.545368 0.422993 -1.670816 -3.335901 -1.435486 2.726883 -1.929446 -3.090522 -4.883878 9.472666 2.068747 -2.889117 7.341798 -6.779381 7.318140 -10.944639 6.670284 -16.154732 -13.956620 2.184529 11.027680 -5.465308 -2.614541 -4.579085 35.788121 0.383730 -7.149361 -2.295670 9.588936 -2.526826 -7.285864 -6.396008 10.178713 -19.276148 -8.167085 -11.245623 -10.011364 -1.539331 2.432335 33.264475 6.217544 7.771415 -3.547041 
0.003246 0.000166 0.002039 177.063781 19.028340 -9.419297 1.304253 7.174366 2.650833 0.685197 -3.867221 -4.123424 -4.072478 25.906806 -3.808647 9.696701 -5.207134 -0.059450 1.263770 -3.701119 -0.179710 -0.689587 8.787838 -3.765557 -0.026931 -19.615738 -1.091522 5.763312 6.895774 6.421964 0.199488 2.363450 -2.394372 0.425339 -1.737934 -3.126040 -1.423150 2.664772 -1.834154 -3.080737 -4.872858 9.627058 2.120866 -2.842389 7.251101 -6.703242 7.208352 -10.865716 6.803229 -16.163324 -14.081560 2.239748 10.979417 -5.354908 -2.359500 -4.661400 35.915975 0.411317 -7.113498 -2.271693 9.476976 -2.592379 -7.271097 -6.476688 10.003429 -19.287340 -8.300997 -10.972557 -9.802623 -1.726739 2.525789 33.339284 6.232485 7.729030 -3.491994 
0.003878 0.000578 -0.000779 177.033625 19.139217 -9.699861 1.324715 7.160183 2.710348 0.643355 -3.921319 -4.085717 -4.086456 25.842786 -3.709183 9.747449 -5.164861 -0.196720 1.218919 -3.727410 -0.196150 -0.644726 8.695660 -3.536629 0.061036 -19.589452 -0.970439 5.528815 6.939228 6.294870 0.098077 2.307788 -2.220385 0.455468 -1.806091 -2.938486 -1.403051 2.587104 -1.672119 -3.077924 -4.957662 9.708693 2.240017 -2.876754 7.106415 -6.658511 7.287442 -10.731354 6.491378 -16.309002 -14.081519 2.574641 9.894569 -5.669011 -1.737770 -5.019396 35.123649 0.191033 -7.038409 -2.234303 9.407915 -2.828122 -7.283923 -5.955925 9.869369 -19.170136 -8.651678 -10.206453 -10.271349 -2.181738 2.831609 32.382595 6.366830 7.672185 -3.299630 
0.005671 0.001292 -0.007341 177.027149 19.155352 -9.883071 1.240736 6.830378 2.266538 0.644025 -3.291355 -3.776521 -3.115406 25.066598 -2.815421 8.312076 -4.237965 -1.053501 1.098760 -3.281994 -1.433682 -0.372651 7.946962 -1.625945 0.465382 -19.040899 -1.135790 4.900581 6.873866 6.092357 -0.144478 1.949552 -1.378797 0.552654 -1.622417 -3.014662 -1.561008 2.333221 -0.829041 -2.169638 -5.243150 8.695287 2.451990 -3.513306 6.575641 -6.741057 9.206739 -9.787716 -0.386960 -16.332065 -10.309771 5.662048 3.140506 -6.510231 7.234947 -8.586102 25.926845 -0.469448 -5.801417 -0.600546 9.476623 -5.080995 -6.725008 2.362174 9.647249 -14.988824 -11.173754 -2.922551 -11.576136 -11.204423 6.517993 22.737142 7.145240 6.629242 -1.080103 
0.009645 0.004938 -0.018551 176.884790 18.999077 -9.825676 1.383821 7.814504 1.621788 1.172867 -2.632929 -4.272785 -1.873707 19.638907 -0.289471 1.905059 -0.221234 -5.313635 1.156864 -3.870895 -3.759211 -0.366709 8.456721 1.130773 5.048456 -16.816750 -3.421424 1.196385 8.728249 8.697664 -0.506212 1.827840 -0.804924 0.527496 -1.823429 -0.725911 -1.429686 2.197059 -1.499232 -2.216432 -6.375166 6.439256 3.837088 -5.985836 8.334683 -10.097295 8.654331 -9.958861 -13.785530 -11.278598 -3.140663 9.245763 -8.698891 -15.976026 20.750328 -7.638120 14.493710 -10.241596 -11.208811 -9.764509 13.650133 -4.962405 -3.056314 15.803624 2.230856 -7.892086 -13.952414 12.881410 -16.762812 -21.608035 6.617331 6.435340 14.705043 10.113627 -6.452608 
0.012933 0.009977 -0.031790 177.318245 18.816256 -9.480547 0.936701 6.864491 0.518108 0.852347 0.454363 -4.110975 -0.577816 16.646643 0.369976 1.046166 2.820929 -5.149359 0.547081 -3.157539 -4.440409 -0.464724 5.467183 0.292815 4.631364 -13.552836 -2.773400 1.227006 6.660922 9.626169 -0.976986 1.769186 -0.362519 0.626361 -1.904659 2.561869 -2.310033 1.369551 -2.782310 -0.126468 -7.146805 6.464928 2.648766 -8.105623 9.620366 -17.580115 10.948006 -8.677071 -30.207850 -10.116438 5.377479 13.412712 -14.953100 -18.307827 13.406549 -6.242335 10.402075 -11.992273 -10.989559 -10.391441 20.913099 -7.279660 -1.788473 32.331627 -0.362580 2.254845 -16.634884 23.904792 -14.428065 -15.551115 5.194341 2.596350 15.669632 10.554062 -5.873793 
0.015567 0.013784 -0.044833 177.591723 18.141734 -10.099027 1.177458 6.374653 0.020719 0.229086 1.915779 -3.001777 0.152610 15.316385 0.350463 1.084309 4.378209 -5.070931 0.457507 -2.433646 -4.445715 -0.754433 4.075547 0.012377 4.631612 -11.482244 -2.084900 0.429029 5.309524 9.368039 -1.712955 1.905956 0.585965 0.880779 -2.370463 6.082139 -2.708189 0.780595 -4.295509 0.411580 -9.072426 6.039997 2.472213 -9.159274 12.413761 -24.547734 8.065872 -5.136229 -44.595347 -8.828906 13.913587 10.463558 -10.529119 -8.395556 8.672489 -5.005737 15.452951 -12.841739 -11.849109 -12.191944 28.229885 -5.161189 0.658854 45.655806 -2.599199 9.770574 -13.256729 24.397804 -7.365884 -9.611586 4.258590 3.216950 16.656395 11.297733 -5.870521 
0.018795 0.015663 -0.057607 177.627894 17.170950 -10.898005 1.664580 6.878966 0.262431 -0.294630 3.427017 -2.971018 0.995465 13.821262 1.070545 0.153017 6.312208 -6.671755 0.629495 -1.650355 -6.442304 -0.774238 3.358171 3.673455 5.855827 -9.993825 -2.365882 -3.026617 3.959989 7.941511 -2.388562 0.975132 2.272639 0.892701 -3.201291 7.016550 -2.785349 -0.095389 -3.946157 1.087161 -8.986057 5.373233 3.117307 -9.751695 11.727781 -25.678250 5.245068 -2.756574 -56.405102 -7.726386 20.120835 9.429112 -10.860619 2.164549 3.814114 -3.466407 20.048909 -13.703766 -12.172216 -14.892093 29.195087 -3.893510 1.520162 59.093088 -4.819326 14.953062 -13.739156 27.117319 -5.238406 -6.996421 2.319568 -1.977503 17.977154 11.162213 -5.877053 
0.029036 0.016653 -0.070339 176.860483 14.661385 -11.147756 3.519727 7.680682 0.453579 -0.496628 4.544967 -4.085170 1.389730 13.098430 1.769825 -0.704291 7.840196 -7.702128 1.873260 -0.843240 -9.288084 0.194573 2.881864 7.660125 5.509878 -9.541431 -3.867909 -3.447478 3.320794 8.720875 -3.235624 -0.084186 4.127479 1.869207 -3.844479 6.275669 -1.801113 -0.792782 -3.604582 0.924168 -7.586140 5.044095 3.565177 -8.573445 9.891115 -24.380172 3.783899 -1.737600 -60.458433 -7.028222 24.585527 7.379315 -18.890436 7.232520 4.309794 -1.673169 15.913001 -16.127749 -13.355797 -16.955244 28.478440 -4.333437 0.857574 62.260971 -7.294456 16.776415 -15.466089 31.163703 -9.425482 -7.036765 0.308090 -12.366361 21.017219 11.476621 -6.493011 
